<svg xmlns="http://www.w3.org/2000/svg" height="800" width="1200" viewBox="-35.2 -41.33 305.07 248"><path d="M229.76 25.82a29.48 29.48 0 00-20.74-20.88C190.72 0 117.33 0 117.33 0S43.95 0 25.65 4.94A29.48 29.48 0 004.9 25.82C0 44.24 0 82.67 0 82.67s0 38.43 4.9 56.85a29.49 29.49 0 0020.75 20.88c18.3 4.93 91.68 4.93 91.68 4.93s73.38 0 91.68-4.93a29.49 29.49 0 0020.75-20.88c4.9-18.42 4.9-56.85 4.9-56.85s0-38.43-4.9-56.85" fill="red"/><path d="M93.33 117.56l61.34-34.9-61.34-34.88z" fill="#fff"/></svg>