<svg xmlns="http://www.w3.org/2000/svg" height="800" width="1200" viewBox="-76.19 -28.35 660.27 170.08"><path d="M158.6 17.7a20.29 20.29 0 00-14.32-14.32C131.63 0 80.99 0 80.99 0S30.34 0 17.71 3.38A20.29 20.29 0 003.37 17.7C0 30.34 0 56.7 0 56.7s0 26.35 3.38 38.98A20.29 20.29 0 0017.7 110c12.64 3.39 63.29 3.39 63.29 3.39s50.65 0 63.28-3.39a20.28 20.28 0 0014.32-14.32c3.39-12.63 3.39-38.99 3.39-38.99s0-26.35-3.39-38.99" fill="red"/><path d="M64.8 80.99l42.07-24.3L64.8 32.4zm188.27 11.04c.89-2.31 1.33-6.1 1.33-11.35V58.56c0-5.1-.45-8.83-1.33-11.18-.89-2.36-2.45-3.54-4.7-3.54-2.15 0-3.68 1.18-4.57 3.54-.89 2.35-1.33 6.08-1.33 11.18v22.12c0 5.25.42 9.04 1.27 11.35.85 2.32 2.4 3.48 4.64 3.48 2.24 0 3.8-1.16 4.69-3.48zm-17.95 11.12c-3.21-2.16-5.5-5.52-6.84-10.08-1.35-4.55-2.03-10.61-2.03-18.18V64.58c0-7.65.77-13.79 2.32-18.42 1.54-4.63 3.96-8.01 7.24-10.13 3.28-2.13 7.59-3.19 12.92-3.19 5.25 0 9.45 1.08 12.62 3.24 3.17 2.17 5.48 5.55 6.95 10.14 1.47 4.6 2.2 10.71 2.2 18.36v10.3c0 7.58-.71 13.66-2.14 18.25-1.43 4.6-3.75 7.96-6.95 10.08s-7.55 3.19-13.03 3.19c-5.64 0-10.06-1.09-13.27-3.25m248.06-57.98c-.81 1-1.35 2.65-1.62 4.92-.28 2.28-.4 5.74-.4 10.37v5.1h11.69v-5.1c0-4.55-.15-8.01-.46-10.37-.31-2.35-.87-4.01-1.68-4.98-.81-.96-2.07-1.45-3.77-1.45-1.7 0-2.95.5-3.76 1.51zm-2.03 29.89v3.59c0 4.56.13 7.97.4 10.25.28 2.28.83 3.94 1.69 4.98.85 1.04 2.16 1.57 3.93 1.57 2.4 0 4.04-.93 4.93-2.79.88-1.85 1.37-4.94 1.44-9.26l13.79.8c.08.63.12 1.48.12 2.56 0 6.56-1.8 11.47-5.4 14.7-3.58 3.25-8.66 4.87-15.22 4.87-7.88 0-13.4-2.47-16.57-7.41-3.17-4.94-4.75-12.59-4.75-22.94v-12.4c0-10.65 1.64-18.43 4.93-23.33 3.28-4.9 8.9-7.36 16.85-7.36 5.48 0 9.7 1 12.63 3.01 2.93 2.01 5 5.14 6.2 9.39 1.2 4.24 1.79 10.11 1.79 17.6v12.17h-26.76M196.2 73.73L178 8.05h15.87l6.37 29.77a281.1 281.1 0 013.6 18.76h.46c.54-3.7 1.73-9.92 3.59-18.65l6.6-29.88h15.87l-18.42 65.68v31.5H196.2v-31.5m125.93-39.5v71H309.6l-1.39-8.68h-.34c-3.4 6.56-8.5 9.84-15.3 9.84-4.7 0-8.18-1.54-10.42-4.63s-3.36-7.91-3.36-14.48V34.23h15.99v52.13c0 3.16.35 5.42 1.04 6.77.7 1.35 1.85 2.03 3.48 2.03 1.39 0 2.72-.42 4-1.28a7.89 7.89 0 002.83-3.24V34.23h15.99m81.99 0v71H391.6l-1.4-8.68h-.34c-3.4 6.56-8.5 9.84-15.29 9.84-4.71 0-8.18-1.54-10.42-4.63s-3.36-7.91-3.36-14.48V34.23h15.98v52.13c0 3.16.35 5.42 1.04 6.77.7 1.35 1.86 2.03 3.48 2.03 1.39 0 2.72-.42 4-1.28a7.9 7.9 0 002.83-3.24V34.23h15.99" fill="#fff"/><path d="M365.55 20.9h-15.87v84.34h-15.63V20.9h-15.87V8.05h47.37v12.86m76.81 53.63c0 5.18-.21 9.23-.64 12.17-.42 2.93-1.13 5.02-2.14 6.25a4.95 4.95 0 01-4.05 1.86 7.4 7.4 0 01-3.65-.93 7 7 0 01-2.72-2.78V50.8a10.1 10.1 0 012.78-4.75 6.15 6.15 0 014.28-1.86c1.62 0 2.88.64 3.77 1.91.88 1.28 1.5 3.42 1.85 6.43.35 3.01.52 7.3.52 12.86zm14.66-28.96c-.97-4.48-2.54-7.72-4.7-9.73-2.16-2-5.13-3.01-8.92-3.01-2.93 0-5.67.83-8.22 2.49a16.93 16.93 0 00-5.9 6.54h-.12V4.46h-15.4v100.78h13.2l1.62-6.72h.34a13.56 13.56 0 005.56 5.67 16.48 16.48 0 008.23 2.09c5.4 0 9.38-2.5 11.93-7.47 2.55-4.99 3.82-12.76 3.82-23.34V64.23c0-7.95-.48-14.17-1.44-18.65" fill="#fff"/></svg>